<svg xmlns="http://www.w3.org/2000/svg" version="1.1" viewBox="0 0 32 40" x="0px" y="0px"><title>search</title><path d="M19.427 20.427c-1.39 0.99-3.090 1.573-4.927 1.573-4.694 0-8.5-3.806-8.5-8.5s3.806-8.5 8.5-8.5c4.694 0 8.5 3.806 8.5 8.5 0 2.347-0.951 4.472-2.49 6.010l5.997 5.997c0.275 0.275 0.268 0.716-0.008 0.992-0.278 0.278-0.72 0.28-0.992 0.008l-6.081-6.081zM14.5 21c4.142 0 7.5-3.358 7.5-7.5s-3.358-7.5-7.5-7.5c-4.142 0-7.5 3.358-7.5 7.5s3.358 7.5 7.5 7.5v0z"/><text x="0" y="47" fill="#000000" font-size="5px" font-weight="bold" font-family="'Helvetica Neue', Helvetica, Arial-Unicode, Arial, Sans-serif">Created by IcoMoon</text><text x="0" y="52" fill="#000000" font-size="5px" font-weight="bold" font-family="'Helvetica Neue', Helvetica, Arial-Unicode, Arial, Sans-serif">from the Noun Project</text></svg>